<?xml version="1.0" encoding="iso-8859-1"?>
<!-- Generator: Adobe Illustrator 21.0.0, SVG Export Plug-In . SVG Version: 6.00 Build 0)  -->
<svg xmlns="http://www.w3.org/2000/svg" xmlns:xlink="http://www.w3.org/1999/xlink" version="1.1" id="Capa_1" x="0px" y="0px" viewBox="0 0 512.001 512.001" style="enable-background:new 0 0 512.001 512.001;" xml:space="preserve" width="512" height="512">
<path fill="#d8d8d8" d="M502.957,304.874l-121.979-52.786c0.649-1.09,1.183-2.271,1.548-3.548C387.485,231.193,390,213.179,390,195  C390,87.477,302.523,0,195,0S0,87.477,0,195s87.477,195,195,195c18.182,0,36.194-2.514,53.54-7.473  c1.277-0.365,2.457-0.9,3.547-1.549l52.786,121.979c2.391,5.525,7.826,9.043,13.761,9.043c0.448,0,0.9-0.02,1.354-0.061  c6.448-0.582,11.796-5.236,13.262-11.543l31.524-135.621l135.622-31.525c6.307-1.466,10.961-6.813,11.543-13.262  S508.899,307.445,502.957,304.874z M195,360c-90.981,0-165-74.019-165-165S104.019,30,195,30s165,74.019,165,165  c0,15.384-2.125,30.618-6.313,45.278L188.53,168.808c-5.646-2.443-12.213-1.191-16.563,3.16c-4.351,4.351-5.604,10.917-3.16,16.564  l71.47,165.156C225.619,357.876,210.386,360,195,360z M348.883,337.669c-5.57,1.294-9.919,5.644-11.214,11.214l-23.337,100.395  L211.386,211.387l237.893,102.946L348.883,337.669z"/>















</svg>
